<svg xmlns="http://www.w3.org/2000/svg" width="600" height="900" viewBox="0 0 600 900">
  <defs>
    <linearGradient id="bg" x1="0%" y1="0%" x2="100%" y2="100%">
      <stop offset="0%" style="stop-color:#0B1628"/>
      <stop offset="50%" style="stop-color:#14203A"/>
      <stop offset="100%" style="stop-color:#1B2A4A"/>
    </linearGradient>
    <linearGradient id="gold" x1="0%" y1="0%" x2="100%" y2="100%">
      <stop offset="0%" style="stop-color:#C4953A"/>
      <stop offset="100%" style="stop-color:#E8C76A"/>
    </linearGradient>
    <linearGradient id="glow" x1="0%" y1="0%" x2="100%" y2="100%">
      <stop offset="0%" style="stop-color:rgba(196,149,58,0.15)"/>
      <stop offset="100%" style="stop-color:rgba(196,149,58,0)"/>
    </linearGradient>
  </defs>
  <rect width="600" height="900" fill="url(#bg)"/>
  <ellipse cx="300" cy="200" rx="400" ry="300" fill="url(#glow)"/>
  <ellipse cx="100" cy="700" rx="250" ry="200" fill="rgba(99,102,241,0.03)"/>
  <line x1="50" y1="200" x2="550" y2="200" stroke="rgba(196,149,58,0.08)" stroke-width="0.5"/>
  <line x1="50" y1="700" x2="550" y2="700" stroke="rgba(196,149,58,0.08)" stroke-width="0.5"/>
  <g transform="translate(300,360)" opacity="0.12">
    <rect x="-3" y="-80" width="6" height="160" rx="3" fill="#C4953A"/>
    <rect x="-60" y="-3" width="120" height="6" rx="3" fill="#C4953A"/>
  </g>
  <circle cx="300" cy="360" r="120" fill="none" stroke="rgba(196,149,58,0.06)" stroke-width="1"/>
  <circle cx="300" cy="360" r="140" fill="none" stroke="rgba(196,149,58,0.03)" stroke-width="0.5"/>
  <g opacity="0.15">
    <rect x="230" y="520" width="140" height="1" fill="#C4953A"/>
    <rect x="200" y="530" width="200" height="1" fill="#C4953A"/>
    <rect x="170" y="540" width="260" height="1" fill="#C4953A"/>
  </g>
  <g transform="translate(300,750)">
    <circle cx="0" cy="0" r="40" fill="none" stroke="rgba(196,149,58,0.15)" stroke-width="1.5"/>
    <circle cx="0" cy="0" r="35" fill="none" stroke="rgba(196,149,58,0.08)" stroke-width="0.5"/>
    <text x="0" y="5" text-anchor="middle" fill="#C4953A" font-family="serif" font-size="18" font-weight="bold" opacity="0.6">L</text>
  </g>
  <text x="300" y="620" text-anchor="middle" fill="#E8C76A" font-family="Georgia, serif" font-size="36" font-weight="bold" letter-spacing="4">FORMAÇÃO EM</text>
  <text x="300" y="665" text-anchor="middle" fill="#E8C76A" font-family="Georgia, serif" font-size="40" font-weight="bold" letter-spacing="2">CAPELANIA</text>
  <text x="300" y="700" text-anchor="middle" fill="#E8C76A" font-family="Georgia, serif" font-size="40" font-weight="bold" letter-spacing="2">CRISTÃ</text>
  <text x="300" y="810" text-anchor="middle" fill="rgba(255,255,255,0.3)" font-family="Arial, sans-serif" font-size="12" letter-spacing="3">INSTITUTO LUMETHOS</text>
</svg>
