<svg xmlns="http://www.w3.org/2000/svg" width="600" height="900" viewBox="0 0 600 900">
  <defs>
    <linearGradient id="bg" x1="0%" y1="0%" x2="100%" y2="100%">
      <stop offset="0%" style="stop-color:#0B1628"/>
      <stop offset="50%" style="stop-color:#1B2A4A"/>
      <stop offset="100%" style="stop-color:#2A1A2A"/>
    </linearGradient>
    <linearGradient id="gold" x1="0%" y1="0%" x2="100%" y2="100%">
      <stop offset="0%" style="stop-color:#C4953A"/>
      <stop offset="100%" style="stop-color:#E8C76A"/>
    </linearGradient>
    <linearGradient id="glow" x1="0%" y1="0%" x2="100%" y2="100%">
      <stop offset="0%" style="stop-color:rgba(196,149,58,0.12)"/>
      <stop offset="100%" style="stop-color:rgba(196,149,58,0)"/>
    </linearGradient>
  </defs>
  <rect width="600" height="900" fill="url(#bg)"/>
  <ellipse cx="300" cy="200" rx="400" ry="300" fill="url(#glow)"/>
  <!-- Harpa/Violão estilizado -->
  <g transform="translate(300,340)" opacity="0.1">
    <path d="M-10,-70 C-30,-50 -30,-20 -20,0 L20,0 C30,-20 30,-50 10,-70" fill="none" stroke="#E8C76A" stroke-width="1.5"/>
    <line x1="0" y1="-70" x2="0" y2="20" stroke="#E8C76A" stroke-width="1.5"/>
    <line x1="-15" y1="-50" x2="15" y2="-50" stroke="#E8C76A" stroke-width="0.8"/>
    <line x1="-18" y1="-35" x2="18" y2="-35" stroke="#E8C76A" stroke-width="0.8"/>
    <line x1="-20" y1="-20" x2="20" y2="-20" stroke="#E8C76A" stroke-width="0.8"/>
    <path d="M-8,20 C-15,35 -20,50 -12,60" fill="none" stroke="#E8C76A" stroke-width="1"/>
    <path d="M8,20 C15,35 20,50 12,60" fill="none" stroke="#E8C76A" stroke-width="1"/>
  </g>
  <circle cx="300" cy="340" r="110" fill="none" stroke="rgba(196,149,58,0.05)" stroke-width="1"/>
  <circle cx="300" cy="340" r="130" fill="none" stroke="rgba(196,149,58,0.03)" stroke-width="0.5"/>
  <g opacity="0.12">
    <rect x="150" y="500" width="300" height="1" fill="#C4953A"/>
    <rect x="180" y="510" width="240" height="1" fill="#C4953A"/>
  </g>
  <g transform="translate(300,750)">
    <circle cx="0" cy="0" r="40" fill="none" stroke="rgba(196,149,58,0.15)" stroke-width="1.5"/>
    <text x="0" y="5" text-anchor="middle" fill="#C4953A" font-family="serif" font-size="18" font-weight="bold" opacity="0.6">L</text>
  </g>
  <text x="300" y="555" text-anchor="middle" fill="#E8C76A" font-family="Georgia, serif" font-size="28" letter-spacing="2">MINISTÉRIO DA</text>
  <text x="300" y="605" text-anchor="middle" fill="#E8C76A" font-family="Georgia, serif" font-size="34" font-weight="bold" letter-spacing="2">MÚSICA E LOUVOR</text>
  <text x="300" y="810" text-anchor="middle" fill="rgba(255,255,255,0.3)" font-family="Arial, sans-serif" font-size="12" letter-spacing="3">INSTITUTO LUMETHOS</text>
</svg>
